<?xml version="1.0" encoding="UTF-8"?>
<svg width="22px" height="22px" viewBox="0 0 22 22" version="1.1" xmlns="http://www.w3.org/2000/svg" xmlns:xlink="http://www.w3.org/1999/xlink">
    <!-- Generator: sketchtool 57.1 (101010) - https://sketch.com -->
    <title>A903B727-D7F5-43AD-97F5-769CF1CA090D</title>
    <desc>Created with sketchtool.</desc>
    <g id="Home" stroke="none" stroke-width="1" fill="none" fill-rule="evenodd">
        <g id="Home-Desktop" transform="translate(-927.000000, -326.000000)" fill="#2554D8">
            <g id="Hero" transform="translate(-2.000000, 1.000000)">
                <g id="search_icon" transform="translate(929.000000, 325.000000)">
                    <path d="M9.1875,4.0001 C6.3275,4.0001 4.0005,6.3271 4.0005,9.1871 C4.0005,9.6361 4.3635,10.0001 4.8125,10.0001 C5.2615,10.0001 5.6255,9.6361 5.6255,9.1871 C5.6255,7.2231 7.2235,5.6251 9.1875,5.6251 C9.6365,5.6251 9.9995,5.2621 9.9995,4.8121 C9.9995,4.3641 9.6365,4.0001 9.1875,4.0001 M19.707,19.7076 C19.5,19.9136 19.163,19.9146 18.956,19.7076 L15.089,15.8406 L15.84,15.0886 L19.707,18.9556 C19.914,19.1626 19.914,19.5006 19.707,19.7076 M2,8.9996 C2,5.1336 5.134,1.9996 9,1.9996 C12.866,1.9996 16,5.1336 16,8.9996 C16,12.8656 12.866,15.9996 9,15.9996 C5.134,15.9996 2,12.8656 2,8.9996 M21.121,17.5416 L16.897,13.3176 C17.6,12.0356 18,10.5646 18,8.9996 C18,4.0296 13.971,-0.0004 9,-0.0004 C4.029,-0.0004 0,4.0296 0,8.9996 C0,13.9706 4.029,17.9996 9,17.9996 C10.565,17.9996 12.035,17.5996 13.317,16.8966 L17.542,21.1216 C18.02,21.5996 18.655,21.8626 19.331,21.8626 C20.008,21.8626 20.644,21.5996 21.122,21.1206 C22.107,20.1336 22.107,18.5276 21.121,17.5416" id="Fill-3"></path>
                </g>
            </g>
        </g>
    </g>
</svg>